<?xml version="1.0" standalone="no"?>
<!DOCTYPE svg PUBLIC "-//W3C//DTD SVG 20010904//EN"
 "http://www.w3.org/TR/2001/REC-SVG-20010904/DTD/svg10.dtd">
<svg version="1.0" xmlns="http://www.w3.org/2000/svg"
 width="1024.000000pt" height="1024.000000pt" viewBox="0 0 1024.000000 1024.000000"
 preserveAspectRatio="xMidYMid meet">
<metadata>
Created by potrace 1.15, written by Peter Selinger 2001-2017
</metadata>
<g transform="translate(0.000000,1024.000000) scale(0.100000,-0.100000)"
fill="#000000" stroke="none">
<path d="M4835 10099 c-399 -16 -787 -82 -1195 -203 -197 -59 -266 -81 -290
-95 -9 -5 -30 -12 -48 -15 -17 -4 -34 -12 -37 -17 -4 -5 -13 -9 -21 -9 -8 0
-36 -10 -62 -21 -26 -12 -71 -32 -100 -45 -29 -13 -55 -24 -57 -24 -8 0 -326
-158 -385 -191 -30 -17 -68 -38 -85 -48 -16 -9 -58 -35 -93 -58 -35 -24 -65
-43 -68 -43 -2 0 -41 -25 -85 -55 -44 -30 -82 -55 -84 -55 -8 0 -210 -152
-221 -166 -6 -8 -16 -14 -23 -14 -6 0 -11 -3 -11 -7 0 -5 -32 -33 -70 -63 -39
-29 -70 -58 -70 -62 0 -4 -5 -8 -10 -8 -13 0 -65 -48 -269 -250 -171 -169
-214 -216 -311 -335 -35 -44 -67 -82 -70 -85 -31 -26 -222 -301 -375 -540
-119 -187 -314 -599 -410 -870 -268 -753 -352 -1545 -249 -2355 13 -101 53
-326 84 -465 55 -253 185 -648 286 -867 13 -29 36 -79 50 -110 30 -66 109
-222 152 -303 58 -106 69 -126 108 -185 48 -74 61 -96 70 -115 4 -8 10 -17 13
-20 3 -3 24 -32 46 -65 60 -90 216 -300 226 -303 5 -2 9 -8 9 -13 0 -5 8 -17
18 -27 9 -10 33 -38 52 -62 32 -41 75 -90 154 -174 65 -71 259 -265 313 -313
97 -87 108 -97 153 -133 24 -19 52 -43 62 -53 10 -9 21 -17 24 -17 4 0 12 -6
18 -14 13 -16 243 -186 252 -186 3 0 23 -14 44 -30 21 -17 43 -30 48 -30 6 0
15 -6 19 -13 4 -8 15 -17 23 -21 16 -7 37 -20 85 -50 30 -19 112 -70 150 -93
19 -11 178 -94 270 -141 22 -11 65 -31 95 -45 30 -13 80 -36 110 -50 223 -104
571 -216 915 -297 383 -90 906 -134 1314 -112 772 42 1437 223 2101 570 154
80 284 158 474 284 40 27 291 211 296 217 3 4 41 36 85 71 106 85 151 127 335
310 177 177 250 256 250 269 0 5 4 11 9 13 5 2 33 32 62 68 30 36 57 67 62 68
4 2 7 10 7 18 0 8 4 14 8 14 23 0 313 429 422 625 85 152 214 422 275 575 10
25 23 59 31 75 7 17 22 58 33 92 11 33 25 72 30 85 56 139 160 553 200 798
154 951 34 1933 -346 2810 -78 180 -238 489 -313 605 -8 13 -28 45 -44 72 -45
74 -249 361 -293 413 -12 14 -47 57 -78 95 -154 190 -368 407 -595 606 -14 12
-56 47 -95 78 -38 31 -72 59 -75 62 -14 17 -325 236 -404 284 -27 17 -59 37
-72 45 -169 111 -547 296 -809 397 -22 8 -51 20 -65 25 -45 18 -223 75 -330
106 -523 151 -1056 214 -1625 191z m1186 -1149 c1049 -104 1863 -696 2152
-1566 89 -269 123 -507 114 -808 -10 -356 -81 -646 -232 -947 -242 -484 -683
-878 -1213 -1086 l-101 -39 839 -1192 c462 -655 840 -1194 840 -1197 0 -3
-377 -5 -838 -5 l-838 0 -780 1108 -780 1107 -542 3 -542 2 0 -130 0 -130 318
-2 317 -3 0 -335 0 -335 -317 -3 -318 -2 0 -300 0 -300 318 -2 317 -3 0 -335
0 -335 -1357 -3 -1358 -2 0 340 0 340 305 0 305 0 0 300 0 300 -305 0 -305 0
0 340 0 340 305 0 305 0 0 2445 0 2445 1644 0 c1047 0 1682 -4 1747 -10z"/>
<path d="M4100 6650 l0 -960 798 0 c850 0 899 2 1087 50 397 100 665 340 756
676 32 115 32 333 1 458 -92 368 -400 618 -879 713 -78 15 -180 17 -925 20
l-838 4 0 -961z"/>
</g>
</svg>
